<mxfile host="65bd71144e">
    <diagram id="GV834YKWUKmjfGfYH_QS" name="Page-1">
        <mxGraphModel dx="2023" dy="1304" grid="1" gridSize="10" guides="1" tooltips="1" connect="1" arrows="1" fold="1" page="1" pageScale="1" pageWidth="850" pageHeight="1100" background="#ffffff" math="0" shadow="0">
            <root>
                <mxCell id="0"/>
                <mxCell id="1" parent="0"/>
                <mxCell id="62" value="" style="html=1;verticalLabelPosition=bottom;align=center;labelBackgroundColor=#ffffff;verticalAlign=top;strokeWidth=2;strokeColor=#DAE8FC;shadow=0;dashed=0;shape=mxgraph.ios7.icons.cloud;fontFamily=Times New Roman;fontSize=30;fillColor=#dae8fc;gradientColor=none;" vertex="1" parent="1">
                    <mxGeometry x="15" y="6.65" width="410" height="380" as="geometry"/>
                </mxCell>
                <mxCell id="33" value="" style="html=1;verticalLabelPosition=bottom;align=center;labelBackgroundColor=#ffffff;verticalAlign=top;strokeWidth=2;strokeColor=#0080F0;shadow=0;dashed=0;shape=mxgraph.ios7.icons.cloud;fillColor=#FFFFFF;" vertex="1" parent="1">
                    <mxGeometry x="271.25" y="825" width="187.5" height="150" as="geometry"/>
                </mxCell>
                <mxCell id="4" value="" style="sketch=0;pointerEvents=1;shadow=0;dashed=0;html=1;strokeColor=none;labelPosition=center;verticalLabelPosition=bottom;verticalAlign=top;align=center;fillColor=#505050;shape=mxgraph.mscae.oms.diagnostics" vertex="1" parent="1">
                    <mxGeometry x="580" y="570" width="150" height="96.25" as="geometry"/>
                </mxCell>
                <mxCell id="5" value="" style="sketch=0;pointerEvents=1;shadow=0;dashed=0;html=1;strokeColor=none;labelPosition=center;verticalLabelPosition=bottom;verticalAlign=top;align=center;fillColor=#515151;shape=mxgraph.mscae.system_center.admin_console" vertex="1" parent="1">
                    <mxGeometry x="580" y="572.5" width="190" height="127.5" as="geometry"/>
                </mxCell>
                <mxCell id="8" value="" style="sketch=0;aspect=fixed;html=1;points=[];align=center;image;fontSize=12;image=img/lib/mscae/Azure_IoT_Hub_Security.svg;" vertex="1" parent="1">
                    <mxGeometry x="21.6" y="570" width="118.4" height="160" as="geometry"/>
                </mxCell>
                <mxCell id="10" value="" style="sketch=0;outlineConnect=0;fontColor=#232F3E;gradientColor=none;fillColor=#D45B07;strokeColor=none;dashed=0;verticalLabelPosition=bottom;verticalAlign=top;align=center;html=1;fontSize=12;fontStyle=0;aspect=fixed;pointerEvents=1;shape=mxgraph.aws4.braket_tensor_network;" vertex="1" parent="1">
                    <mxGeometry x="320" y="870" width="90" height="90" as="geometry"/>
                </mxCell>
                <mxCell id="11" value="" style="rounded=1;whiteSpace=wrap;html=1;fillColor=#6d8764;fontColor=#ffffff;strokeColor=#3A5431;" vertex="1" parent="1">
                    <mxGeometry x="240" y="1389.3100000000002" width="340" height="320" as="geometry"/>
                </mxCell>
                <mxCell id="12" value="" style="pointerEvents=1;verticalLabelPosition=bottom;shadow=0;dashed=0;align=center;html=1;verticalAlign=top;shape=mxgraph.electrical.signal_sources.source;aspect=fixed;points=[[0.5,0,0],[1,0.5,0],[0.5,1,0],[0,0.5,0]];elSignalType=dc2;elSourceType=dependent;fillColor=#f8cecc;strokeColor=#b85450;" vertex="1" parent="1">
                    <mxGeometry x="270" y="1389.3100000000002" width="50" height="50" as="geometry"/>
                </mxCell>
                <mxCell id="13" value="" style="pointerEvents=1;verticalLabelPosition=bottom;shadow=0;dashed=0;align=center;html=1;verticalAlign=top;shape=mxgraph.electrical.miscellaneous.batteryStack;fillColor=#d80073;fontColor=#ffffff;strokeColor=#A50040;" vertex="1" parent="1">
                    <mxGeometry x="470" y="1629.31" width="100" height="60" as="geometry"/>
                </mxCell>
                <mxCell id="14" value="" style="pointerEvents=1;verticalLabelPosition=bottom;shadow=0;dashed=0;align=center;html=1;verticalAlign=top;shape=mxgraph.electrical.electro-mechanical.reedSwitch2;elSwitchState=off;" vertex="1" parent="1">
                    <mxGeometry x="350" y="1634.31" width="120" height="50" as="geometry"/>
                </mxCell>
                <mxCell id="16" value="" style="pointerEvents=1;verticalLabelPosition=bottom;shadow=0;dashed=0;align=center;html=1;verticalAlign=top;shape=mxgraph.electrical.signal_sources.source;aspect=fixed;points=[[0.5,0,0],[1,0.5,0],[0.5,1,0],[0,0.5,0]];elSignalType=noise;fillColor=#e3c800;fontColor=#000000;strokeColor=#B09500;" vertex="1" parent="1">
                    <mxGeometry x="482.5" y="1409.3100000000002" width="80" height="80" as="geometry"/>
                </mxCell>
                <mxCell id="25" style="edgeStyle=none;html=1;exitX=0;exitY=0.84;exitDx=0;exitDy=0;strokeColor=#000000;" edge="1" parent="1" source="17" target="22">
                    <mxGeometry relative="1" as="geometry"/>
                </mxCell>
                <mxCell id="17" value="" style="shape=mxgraph.electrical.electro-mechanical.switchDisconnector;aspect=fixed;elSwitchState=on;fillColor=#cdeb8b;strokeColor=#36393d;" vertex="1" parent="1">
                    <mxGeometry x="410" y="1427.3100000000002" width="70" height="18.67" as="geometry"/>
                </mxCell>
                <mxCell id="18" value="" style="shape=mxgraph.electrical.electro-mechanical.fuse2;aspect=fixed;elSwitchState=on;fillColor=#0050ef;fontColor=#ffffff;strokeColor=#001DBC;rotation=90;" vertex="1" parent="1">
                    <mxGeometry x="294.65" y="1580.96" width="127.67" height="34.05" as="geometry"/>
                </mxCell>
                <mxCell id="22" value="" style="verticalLabelPosition=bottom;align=center;dashed=0;html=1;verticalAlign=top;shape=mxgraph.pid.filters.press_filter;fillColor=#fa6800;fontColor=#000000;strokeColor=#C73500;rotation=90;" vertex="1" parent="1">
                    <mxGeometry x="360" y="1509.3100000000002" width="100" height="50" as="geometry"/>
                </mxCell>
                <mxCell id="23" value="" style="endArrow=none;html=1;fillColor=#fa6800;strokeColor=#C73500;entryX=0.5;entryY=1;entryDx=0;entryDy=0;entryPerimeter=0;" edge="1" parent="1" target="22">
                    <mxGeometry width="50" height="50" relative="1" as="geometry">
                        <mxPoint x="310" y="1539.3100000000002" as="sourcePoint"/>
                        <mxPoint x="360" y="1539.3100000000002" as="targetPoint"/>
                    </mxGeometry>
                </mxCell>
                <mxCell id="27" value="" style="rounded=0;whiteSpace=wrap;html=1;" vertex="1" parent="1">
                    <mxGeometry x="255" y="1615.01" width="80" height="60" as="geometry"/>
                </mxCell>
                <mxCell id="26" value="" style="html=1;verticalLabelPosition=bottom;align=center;labelBackgroundColor=#ffffff;verticalAlign=top;strokeWidth=2;strokeColor=#0080F0;shadow=0;dashed=0;shape=mxgraph.ios7.icons.wifi;pointerEvents=1;rotation=-180;" vertex="1" parent="1">
                    <mxGeometry x="265.15" y="1622.48" width="59.7" height="45.05" as="geometry"/>
                </mxCell>
                <mxCell id="29" style="edgeStyle=none;html=1;exitX=0.5;exitY=1;exitDx=0;exitDy=0;entryX=0.49;entryY=1.083;entryDx=0;entryDy=0;entryPerimeter=0;strokeColor=#000000;" edge="1" parent="1" source="28" target="26">
                    <mxGeometry relative="1" as="geometry"/>
                </mxCell>
                <mxCell id="28" value="" style="whiteSpace=wrap;html=1;aspect=fixed;fillColor=#a20025;fontColor=#ffffff;strokeColor=#6F0000;" vertex="1" parent="1">
                    <mxGeometry x="255" y="1489.3100000000002" width="80" height="80" as="geometry"/>
                </mxCell>
                <mxCell id="31" value="" style="edgeStyle=none;html=1;strokeColor=#000000;" edge="1" parent="1" source="30" target="22">
                    <mxGeometry relative="1" as="geometry"/>
                </mxCell>
                <mxCell id="30" value="" style="pointerEvents=1;verticalLabelPosition=bottom;shadow=0;dashed=0;align=center;html=1;verticalAlign=top;shape=mxgraph.electrical.miscellaneous.batteryStack;fillColor=#6a00ff;fontColor=#ffffff;strokeColor=#3700CC;" vertex="1" parent="1">
                    <mxGeometry x="470" y="1502.2800000000002" width="105" height="64.05" as="geometry"/>
                </mxCell>
                <mxCell id="37" value="" style="edgeStyle=none;html=1;strokeColor=#000000;" edge="1" parent="1" source="34" target="5">
                    <mxGeometry relative="1" as="geometry"/>
                </mxCell>
                <mxCell id="34" value="" style="aspect=fixed;perimeter=ellipsePerimeter;html=1;align=center;shadow=0;dashed=0;fontColor=#4277BB;labelBackgroundColor=#ffffff;fontSize=12;spacingTop=3;image;image=img/lib/ibm/management/cluster_management.svg;fillColor=#FFFFFF;" vertex="1" parent="1">
                    <mxGeometry x="550" y="458.26" width="60" height="60" as="geometry"/>
                </mxCell>
                <mxCell id="38" value="" style="edgeStyle=none;html=1;strokeColor=#000000;" edge="1" parent="1" source="35" target="5">
                    <mxGeometry relative="1" as="geometry"/>
                </mxCell>
                <mxCell id="35" value="" style="sketch=0;pointerEvents=1;shadow=0;dashed=0;html=1;strokeColor=none;labelPosition=center;verticalLabelPosition=bottom;verticalAlign=top;align=center;fillColor=#505050;shape=mxgraph.mscae.intune.device_health" vertex="1" parent="1">
                    <mxGeometry x="640" y="462.75" width="60" height="51" as="geometry"/>
                </mxCell>
                <mxCell id="39" value="" style="edgeStyle=none;html=1;strokeColor=#000000;" edge="1" parent="1" source="36" target="5">
                    <mxGeometry relative="1" as="geometry"/>
                </mxCell>
                <mxCell id="36" value="" style="verticalLabelPosition=bottom;sketch=0;aspect=fixed;html=1;verticalAlign=top;strokeColor=none;align=center;outlineConnect=0;shape=mxgraph.citrix.reporting;fillColor=#FFFFFF;" vertex="1" parent="1">
                    <mxGeometry x="736.93" y="451.01" width="66.4" height="74.5" as="geometry"/>
                </mxCell>
                <mxCell id="40" value="" style="shape=flexArrow;endArrow=classic;startArrow=classic;html=1;width=17;endSize=5.51;startSize=5.51;fillColor=default;" edge="1" parent="1">
                    <mxGeometry width="100" height="100" relative="1" as="geometry">
                        <mxPoint x="270" y="930" as="sourcePoint"/>
                        <mxPoint x="322.5" y="750" as="targetPoint"/>
                        <Array as="points">
                            <mxPoint x="180" y="870"/>
                        </Array>
                    </mxGeometry>
                </mxCell>
                <mxCell id="41" value="" style="shape=flexArrow;endArrow=classic;startArrow=classic;html=1;strokeColor=#000000;width=11;endSize=5.51;exitX=0.983;exitY=0.684;exitDx=0;exitDy=0;exitPerimeter=0;fillColor=default;" edge="1" parent="1" source="33">
                    <mxGeometry width="100" height="100" relative="1" as="geometry">
                        <mxPoint x="435.906183176897" y="850.4805636212213" as="sourcePoint"/>
                        <mxPoint x="403.25" y="750" as="targetPoint"/>
                        <Array as="points">
                            <mxPoint x="540" y="870"/>
                        </Array>
                    </mxGeometry>
                </mxCell>
                <mxCell id="42" value="" style="html=1;shadow=0;dashed=0;align=center;verticalAlign=middle;shape=mxgraph.arrows2.arrow;dy=0.73;dx=32.79;notch=0;gradientColor=none;strokeColor=#000000;" vertex="1" parent="1">
                    <mxGeometry x="150" y="615" width="100" height="70" as="geometry"/>
                </mxCell>
                <mxCell id="46" value="" style="html=1;verticalLabelPosition=bottom;align=center;labelBackgroundColor=#ffffff;verticalAlign=top;strokeWidth=2;shadow=0;dashed=0;shape=mxgraph.ios7.icons.wifi;pointerEvents=1;fillColor=#0000FF;rotation=-180;" vertex="1" parent="1">
                    <mxGeometry x="24.35" y="436.88" width="115.65" height="102.75" as="geometry"/>
                </mxCell>
                <mxCell id="47" value="&lt;font face=&quot;Times New Roman&quot;&gt;DTLS&lt;/font&gt;" style="text;html=1;strokeColor=none;fillColor=none;align=center;verticalAlign=middle;whiteSpace=wrap;rounded=0;fontStyle=3;fontFamily=Lucida Console;fontSize=30;fontColor=#000000;" vertex="1" parent="1">
                    <mxGeometry x="24.35" y="380" width="115.65" height="87.25" as="geometry"/>
                </mxCell>
                <mxCell id="48" value="1" style="text;html=1;strokeColor=none;fillColor=none;align=center;verticalAlign=middle;whiteSpace=wrap;rounded=0;fontFamily=Times New Roman;fontSize=30;fontColor=#000000;fontStyle=1" vertex="1" parent="1">
                    <mxGeometry x="270" y="1509.3100000000002" width="40" height="25" as="geometry"/>
                </mxCell>
                <mxCell id="49" value="2" style="text;html=1;strokeColor=none;fillColor=none;align=center;verticalAlign=middle;whiteSpace=wrap;rounded=0;fontFamily=Times New Roman;fontSize=30;fontColor=#000000;fontStyle=1" vertex="1" parent="1">
                    <mxGeometry x="510" y="1409.3100000000002" width="60" height="30" as="geometry"/>
                </mxCell>
                <mxCell id="50" value="3" style="text;html=1;strokeColor=none;fillColor=none;align=center;verticalAlign=middle;whiteSpace=wrap;rounded=0;fontFamily=Times New Roman;fontSize=30;fontColor=#000000;fontStyle=1" vertex="1" parent="1">
                    <mxGeometry x="530" y="1604.31" width="60" height="30" as="geometry"/>
                </mxCell>
                <mxCell id="51" value="4" style="text;html=1;strokeColor=none;fillColor=none;align=center;verticalAlign=middle;whiteSpace=wrap;rounded=0;fontFamily=Times New Roman;fontSize=30;fontColor=#000000;fontStyle=1" vertex="1" parent="1">
                    <mxGeometry x="540" y="1489.3100000000002" width="60" height="30" as="geometry"/>
                </mxCell>
                <mxCell id="52" value="5" style="text;html=1;strokeColor=none;fillColor=none;align=center;verticalAlign=middle;whiteSpace=wrap;rounded=0;fontFamily=Times New Roman;fontSize=30;fontColor=#000000;fontStyle=1" vertex="1" parent="1">
                    <mxGeometry x="362.31999999999994" y="1479.3100000000002" width="60" height="30" as="geometry"/>
                </mxCell>
                <mxCell id="53" value="6" style="text;html=1;strokeColor=none;fillColor=none;align=center;verticalAlign=middle;whiteSpace=wrap;rounded=0;fontFamily=Times New Roman;fontSize=30;fontColor=#000000;fontStyle=1" vertex="1" parent="1">
                    <mxGeometry x="255" y="1397.3100000000002" width="60" height="30" as="geometry"/>
                </mxCell>
                <mxCell id="54" value="&lt;b&gt;7&lt;/b&gt;" style="text;html=1;strokeColor=none;fillColor=none;align=center;verticalAlign=middle;whiteSpace=wrap;rounded=0;fontFamily=Times New Roman;fontSize=30;fontColor=#000000;" vertex="1" parent="1">
                    <mxGeometry x="290" y="1675.01" width="60" height="30" as="geometry"/>
                </mxCell>
                <mxCell id="57" value="&lt;b&gt;IOT Device&lt;/b&gt;" style="text;html=1;strokeColor=none;fillColor=none;align=center;verticalAlign=middle;whiteSpace=wrap;rounded=0;fontFamily=Times New Roman;fontSize=30;fontColor=#000000;" vertex="1" parent="1">
                    <mxGeometry x="306.82" y="1320" width="203.33" height="50" as="geometry"/>
                </mxCell>
                <mxCell id="58" value="" style="sketch=0;pointerEvents=1;shadow=0;dashed=0;html=1;strokeColor=#001DBC;fillColor=#0050ef;labelPosition=center;verticalLabelPosition=bottom;verticalAlign=top;outlineConnect=0;align=center;shape=mxgraph.office.devices.nic;fontFamily=Times New Roman;fontSize=30;fontColor=#ffffff;" vertex="1" parent="1">
                    <mxGeometry x="56.81999999999999" y="161.65" width="130" height="100" as="geometry"/>
                </mxCell>
                <mxCell id="59" value="" style="sketch=0;pointerEvents=1;shadow=0;dashed=0;html=1;strokeColor=#001DBC;fillColor=#0050ef;labelPosition=center;verticalLabelPosition=bottom;verticalAlign=top;outlineConnect=0;align=center;shape=mxgraph.office.devices.nic;fontFamily=Times New Roman;fontSize=30;fontColor=#ffffff;" vertex="1" parent="1">
                    <mxGeometry x="176.82" y="126.67000000000002" width="130" height="100" as="geometry"/>
                </mxCell>
                <mxCell id="60" value="" style="sketch=0;pointerEvents=1;shadow=0;dashed=0;html=1;strokeColor=#001DBC;fillColor=#0050ef;labelPosition=center;verticalLabelPosition=bottom;verticalAlign=top;outlineConnect=0;align=center;shape=mxgraph.office.devices.nic;fontFamily=Times New Roman;fontSize=30;fontColor=#ffffff;" vertex="1" parent="1">
                    <mxGeometry x="196.82" y="247.01999999999998" width="130" height="100" as="geometry"/>
                </mxCell>
                <mxCell id="61" value="" style="sketch=0;pointerEvents=1;shadow=0;dashed=0;html=1;strokeColor=#001DBC;fillColor=#0050ef;labelPosition=center;verticalLabelPosition=bottom;verticalAlign=top;outlineConnect=0;align=center;shape=mxgraph.office.devices.nic;fontFamily=Times New Roman;fontSize=30;fontColor=#ffffff;" vertex="1" parent="1">
                    <mxGeometry x="56.81999999999999" y="265" width="130" height="100" as="geometry"/>
                </mxCell>
                <mxCell id="63" value="&lt;span style=&quot;font-size: 40px;&quot;&gt;Network Of Devices&lt;/span&gt;" style="text;html=1;strokeColor=none;fillColor=none;align=center;verticalAlign=middle;whiteSpace=wrap;rounded=0;fontFamily=Times New Roman;fontSize=40;fontColor=#000000;fontStyle=1" vertex="1" parent="1">
                    <mxGeometry x="36.81999999999999" y="75" width="350" height="60" as="geometry"/>
                </mxCell>
                <mxCell id="64" value="" style="html=1;shadow=0;dashed=0;align=center;verticalAlign=middle;shape=mxgraph.arrows2.arrow;dy=0.73;dx=32.79;notch=0;gradientColor=none;strokeColor=#000000;" vertex="1" parent="1">
                    <mxGeometry x="458.75" y="606.25" width="100" height="70" as="geometry"/>
                </mxCell>
                <mxCell id="65" value="Deployed Model" style="text;html=1;strokeColor=none;fillColor=none;align=center;verticalAlign=middle;whiteSpace=wrap;rounded=0;fontFamily=Times New Roman;fontSize=40;fontColor=#000000;fontStyle=3" vertex="1" parent="1">
                    <mxGeometry x="230" y="975" width="310" height="40" as="geometry"/>
                </mxCell>
                <mxCell id="66" value="Encryption" style="text;html=1;strokeColor=none;fillColor=none;align=center;verticalAlign=middle;whiteSpace=wrap;rounded=0;fontFamily=Times New Roman;fontSize=40;fontColor=#000000;fontStyle=1" vertex="1" parent="1">
                    <mxGeometry x="90" y="690" width="60" height="30" as="geometry"/>
                </mxCell>
                <mxCell id="68" value="&lt;b&gt;Cloud Database&lt;/b&gt;" style="text;html=1;strokeColor=none;fillColor=none;align=center;verticalAlign=middle;whiteSpace=wrap;rounded=0;fontFamily=Times New Roman;fontSize=40;fontColor=#000000;" vertex="1" parent="1">
                    <mxGeometry x="215.15" y="537.25" width="290" height="47.25" as="geometry"/>
                </mxCell>
                <mxCell id="69" value="" style="sketch=0;aspect=fixed;html=1;points=[];align=center;image;fontSize=12;image=img/lib/mscae/Virtual_Datacenter.svg;strokeColor=#DAE8FC;fontFamily=Times New Roman;fontColor=#000000;fillColor=none;gradientColor=none;" vertex="1" parent="1">
                    <mxGeometry x="260" y="584.5" width="172.5" height="172.5" as="geometry"/>
                </mxCell>
                <mxCell id="73" value="&lt;b&gt;Real Time Analytics and Control Station&lt;/b&gt;" style="text;html=1;strokeColor=none;fillColor=none;align=center;verticalAlign=middle;whiteSpace=wrap;rounded=0;fontFamily=Times New Roman;fontSize=30;fontColor=#000000;" vertex="1" parent="1">
                    <mxGeometry x="620" y="760" width="160" height="50" as="geometry"/>
                </mxCell>
                <mxCell id="74" value="&lt;b&gt;1&lt;/b&gt;" style="text;html=1;strokeColor=none;fillColor=none;align=center;verticalAlign=middle;whiteSpace=wrap;rounded=0;fontFamily=Times New Roman;fontSize=30;fontColor=#000000;" vertex="1" parent="1">
                    <mxGeometry x="540" y="421.01" width="60" height="30" as="geometry"/>
                </mxCell>
                <mxCell id="75" value="2" style="text;html=1;strokeColor=none;fillColor=none;align=center;verticalAlign=middle;whiteSpace=wrap;rounded=0;labelBackgroundColor=none;fontFamily=Times New Roman;fontSize=30;fontColor=#000000;fontStyle=1" vertex="1" parent="1">
                    <mxGeometry x="640" y="421.01" width="60" height="30" as="geometry"/>
                </mxCell>
                <mxCell id="76" value="3" style="text;html=1;strokeColor=none;fillColor=none;align=center;verticalAlign=middle;whiteSpace=wrap;rounded=0;labelBackgroundColor=none;fontFamily=Times New Roman;fontSize=30;fontColor=#000000;fontStyle=1" vertex="1" parent="1">
                    <mxGeometry x="750" y="421.01" width="60" height="30" as="geometry"/>
                </mxCell>
            </root>
        </mxGraphModel>
    </diagram>
</mxfile>